<?xml version="1.0" encoding="utf-8"?>
<!-- Generator: Adobe Illustrator 17.1.0, SVG Export Plug-In . SVG Version: 6.00 Build 0)  -->
<!DOCTYPE svg PUBLIC "-//W3C//DTD SVG 1.1//EN" "http://www.w3.org/Graphics/SVG/1.1/DTD/svg11.dtd">
<svg version="1.1" id="Layer_1" xmlns="http://www.w3.org/2000/svg" xmlns:xlink="http://www.w3.org/1999/xlink" x="0px" y="0px"
	 viewBox="0 155 960 256" style="enable-background:new 0 155 960 256;" xml:space="preserve">
<style type="text/css">
	.st0{fill:#A14A49;}
	.st1{fill:#231F20;}
	.st2{fill:none;}
</style>
<path class="st0" d="M423.2,214.9c27.3,0.5,38.7,22.6,38.3,42.4c-0.3,19.5-10.8,40.5-38.8,40.5s-38.5-20.9-39-40.4
	C383,233.9,397.9,214.9,423.2,214.9z M469.1,359.3c7.6-3.6,14.5-7.5,20.8-11.6c-17,25.4-45.9,42.1-78.8,42.1
	c-16.4,0-31.9-4.2-45.4-11.5c0.8,0.1,1.5,0.1,2.3,0.1c15.8,0.8,33.5,0.1,51.7-3.3C437.8,372,454.6,366.2,469.1,359.3L469.1,359.3z
	 M326.3,337.7c-6.5-12.8-10.1-27.3-10.1-42.6c0-5.3,0.4-10.5,1.3-15.6c3.6-21.8,14.7-41.1,30.5-55.2c12.4-11.1,27.7-18.9,44.6-22.2
	c-18.6,10.1-30.9,29.8-30.9,55c0,31.2,19.3,61.2,61.1,61.2c41.7,0,60.6-30.7,60.9-61.4c0.1-10.3-2.1-20.7-6.6-29.9
	c17.5,16.9,28.4,40.4,28.8,66.6c-4.3,2.7-9.4,5.8-15.1,9.1c-10.1,5.5-22.5,11.5-36.7,16.6S424,329,406.9,332
	C376.8,337.7,348.5,338.5,326.3,337.7L326.3,337.7z M495,309.3c4-3.3,7.6-6.4,10.7-9.3c-0.6,11.2-3.1,21.9-7.2,31.7
	c-9.7,5.2-21.3,10.7-34.5,15.5c-14.2,5.2-30.1,9.7-47.2,12.7c-25,4.7-48.9,5.9-69,5.8c-5.8-5.2-11-11.1-15.4-17.6
	c7.8,1.2,16.4,2.2,25.5,2.6c15.9,0.9,33.5,0.1,51.7-3.2c18.2-3.2,35-9.1,49.5-15.9C473.6,324.7,485.6,316.7,495,309.3L495,309.3z"/>
<path class="st1" d="M147.9,243.1c-14.3-1.7-26.5-4.6-26.5-14.9c0-8.8,8-15.8,24.6-15.8c12.9,0,24.1,6.4,28.1,13.2l17.8-9.1
	c-9-18.3-28.2-23.6-46.7-23.6c-21.9,0.2-46,10.2-46,34.6c0,26.6,22.4,33.1,46.7,36c15.8,1.7,27.5,6.3,27.5,17.4
	c0,12.9-13.2,17.8-27.3,17.8c-14.4,0-28.2-5.8-33.4-18.8L94,289.6c8.8,21.7,27.5,29.2,51.8,29.2c26.4,0,49.9-11.4,49.9-37.9
	C195.7,252.6,172.6,246.2,147.9,243.1L147.9,243.1z M313.5,224.4c-5.2-15.2-19-27.6-41.5-27.6l-56,0.1v118.8h22.4v-34.9H272
	c3.9,0,7.6-0.5,11-1.2C310.8,273.6,320.9,246.1,313.5,224.4L313.5,224.4z M272,260.2h-33.6v-42.1H272
	C300.5,218.2,300.7,260.2,272,260.2z M497.7,196.9v20.4h37.7v98.4h22.4v-98.4h37.6v-20.4H497.7z M696,273.7v-75.4h21.1v112H700
	l-59.5-74.6v74.6h-21.1v-112h17.1L696,273.7z M743.7,310.4v-112h21v112H743.7z M889.2,199l-49.8,53.6l53.9,56.5v1.3h-26.1
	l-46.9-49.6v49.6h-21.1v-112h21.1v47.4l42.6-47.4h26.2L889.2,199L889.2,199z"/>
<path class="st2" d="M505.8,293.7v1.4c0,1.6,0,3.3-0.1,4.9"/>
</svg>
