<?xml version="1.0" encoding="utf-8"?>
<!-- Generator: Adobe Illustrator 17.1.0, SVG Export Plug-In . SVG Version: 6.00 Build 0)  -->
<!DOCTYPE svg PUBLIC "-//W3C//DTD SVG 1.1//EN" "http://www.w3.org/Graphics/SVG/1.1/DTD/svg11.dtd">
<svg version="1.1" id="Layer_1" xmlns="http://www.w3.org/2000/svg" xmlns:xlink="http://www.w3.org/1999/xlink" x="0px" y="0px"
	 viewBox="0 0 288 288" enable-background="new 0 0 288 288" xml:space="preserve">
<g>
	<path fill="#A14A49" d="M126.954,119.812c8.192,0.15,11.601,6.766,11.498,12.722c-0.098,5.852-3.254,12.164-11.652,12.164
		c-8.393,0-11.549-6.26-11.704-12.112C114.893,125.509,119.371,119.812,126.954,119.812z"/>
	<path fill="#A14A49" d="M140.72,163.13c2.28-1.08,4.36-2.26,6.23-3.47c-5.09,7.62-13.78,12.64-23.64,12.64
		c-4.93,0-9.57-1.25-13.62-3.46c0.23,0.02,0.46,0.03,0.69,0.04c4.75,0.25,10.05,0.03,15.5-0.98
		C131.34,166.94,136.39,165.19,140.72,163.13z"/>
	<path fill="#A14A49" d="M97.9,156.65c-1.94-3.84-3.03-8.18-3.03-12.78c0-1.6,0.13-3.15,0.38-4.67c1.08-6.54,4.4-12.34,9.14-16.56
		c3.71-3.32,8.3-5.67,13.37-6.67c-5.58,3.04-9.28,8.93-9.28,16.51c0,9.37,5.8,18.37,18.32,18.37c12.52,0,18.17-9.21,18.27-18.42
		c0.03-3.1-0.62-6.2-1.97-8.97c5.24,5.07,8.53,12.13,8.64,19.98c-1.29,0.82-2.81,1.75-4.54,2.74c-3.04,1.66-6.75,3.44-11,4.99
		c-4.25,1.54-9.02,2.9-14.15,3.81C113.05,156.65,104.55,156.87,97.9,156.65z"/>
	<path fill="#A14A49" d="M148.51,148.12c1.2-0.98,2.27-1.92,3.2-2.79c-0.17,3.36-0.92,6.57-2.16,9.52
		c-2.92,1.56-6.4,3.21-10.36,4.64c-4.25,1.55-9.02,2.91-14.15,3.81c-7.5,1.4-14.66,1.78-20.69,1.75c-1.75-1.55-3.3-3.33-4.62-5.29
		c2.35,0.37,4.92,0.66,7.66,0.79c4.76,0.26,10.05,0.03,15.5-0.97c5.46-0.97,10.51-2.72,14.84-4.77
		C142.07,152.75,145.68,150.34,148.51,148.12z"/>
	<g>
		<path fill="#231F20" d="M44.36,128.26c-4.28-0.51-7.94-1.38-7.94-4.48c0-2.65,2.39-4.73,7.38-4.73c3.86,0,7.22,1.93,8.44,3.96
			l5.35-2.74c-2.7-5.5-8.45-7.07-14-7.07c-6.56,0.05-13.79,3.05-13.79,10.38c0,7.99,6.72,9.92,14,10.79
			c4.73,0.5,8.24,1.88,8.24,5.23c0,3.87-3.97,5.35-8.19,5.35c-4.33,0-8.45-1.73-10.03-5.65l-5.6,2.9c2.65,6.52,8.25,8.76,15.53,8.76
			c7.93,0,14.96-3.42,14.96-11.36C58.71,131.11,51.79,129.18,44.36,128.26z"/>
		<path fill="#231F20" d="M94.05,122.64c-1.56-4.57-5.71-8.27-12.44-8.27c-5.55,0-11.25,0.04-16.8,0.04v35.63h6.72v-10.48h10.08
			c1.18-0.01,2.28-0.14,3.3-0.36C93.24,137.4,96.27,129.15,94.05,122.64z M81.61,133.4H71.53v-12.62h10.08
			C90.15,120.78,90.21,133.4,81.61,133.4z"/>
		<path fill="#231F20" d="M149.32,114.41v6.11h11.3v29.52h6.72v-29.52h11.29v-6.11H149.32z"/>
	</g>
</g>
<g>
	<path fill="#231F20" d="M208.8,137.455v-22.608h6.336v33.599h-5.136l-17.857-22.368v22.368h-6.336v-33.599h5.137L208.8,137.455z"/>
	<path fill="#231F20" d="M223.1,148.446v-33.599h6.288v33.599H223.1z"/>
	<path fill="#231F20" d="M266.774,115.039l-14.928,16.08l16.176,16.943v0.384h-7.825l-14.063-14.88v14.88h-6.336v-33.599h6.336
		v14.207l12.767-14.207h7.873V115.039z"/>
</g>
<g>
	<path fill="none" d="M151.74,143.44c0.01,0.14,0.01,0.29,0.01,0.43c0,0.49-0.01,0.98-0.04,1.46"/>
</g>
</svg>
